<svg width="1440" height="431" viewBox="0 0 1440 431" fill="none" xmlns="http://www.w3.org/2000/svg">
<g filter="url(#filter0_f_50_305)">
<path d="M209.269 71.6304L211.68 77.4058L218.194 79.5429L211.68 81.68L209.269 87.4555L206.859 81.68L200.344 79.5429L206.859 77.4058L209.269 71.6304Z" fill="#D9D9D9" fill-opacity="0.3"/>
</g>
<g filter="url(#filter1_f_50_305)">
<path d="M360.994 182.406L363.405 188.182L369.919 190.319L363.405 192.456L360.994 198.231L358.583 192.456L352.069 190.319L358.583 188.182L360.994 182.406Z" fill="#D9D9D9" fill-opacity="0.3"/>
</g>
<g filter="url(#filter2_f_50_305)">
<path d="M108.417 198.231L110.104 202.274L114.664 203.77L110.104 205.266L108.417 209.309L106.73 205.266L102.169 203.77L106.73 202.274L108.417 198.231Z" fill="#D9D9D9" fill-opacity="0.3"/>
</g>
<g filter="url(#filter3_f_50_305)">
<path d="M19.1671 111.193L21.3366 116.391L27.1996 118.315L21.3366 120.238L19.1671 125.436L16.9976 120.238L11.1346 118.315L16.9976 116.391L19.1671 111.193Z" fill="#D9D9D9" fill-opacity="0.3"/>
</g>
<g filter="url(#filter4_f_50_305)">
<path d="M109.309 343.822L111.238 348.442L116.449 350.152L111.238 351.862L109.309 356.482L107.381 351.862L102.169 350.152L107.381 348.442L109.309 343.822Z" fill="#D9D9D9" fill-opacity="0.3"/>
</g>
<g filter="url(#filter5_f_50_305)">
<path d="M232.474 149.173L234.403 153.794L239.614 155.504L234.403 157.213L232.474 161.834L230.546 157.213L225.334 155.504L230.546 153.794L232.474 149.173Z" fill="#D9D9D9" fill-opacity="0.3"/>
</g>
<g filter="url(#filter6_f_50_305)">
<path d="M404.726 87.4556L405.449 89.1882L407.404 89.8293L405.449 90.4705L404.726 92.2031L404.003 90.4705L402.049 89.8293L404.003 89.1882L404.726 87.4556Z" fill="#D9D9D9" fill-opacity="0.3"/>
</g>
<g filter="url(#filter7_f_50_305)">
<path d="M315.477 20.9901L316.2 22.7227L318.154 23.3639L316.2 24.005L315.477 25.7376L314.753 24.005L312.799 23.3639L314.753 22.7227L315.477 20.9901Z" fill="#D9D9D9" fill-opacity="0.3"/>
</g>
<g filter="url(#filter8_f_50_305)">
<path d="M781.36 2L782.084 3.73263L784.038 4.37376L782.084 5.0149L781.36 6.74753L780.637 5.0149L778.683 4.37376L780.637 3.73263L781.36 2Z" fill="#D9D9D9" fill-opacity="0.3"/>
</g>
<g filter="url(#filter9_f_50_305)">
<path d="M604.646 92.2031L605.369 93.9358L607.323 94.5769L605.369 95.218L604.646 96.9507L603.923 95.218L601.968 94.5769L603.923 93.9358L604.646 92.2031Z" fill="#D9D9D9" fill-opacity="0.3"/>
</g>
<g filter="url(#filter10_f_50_305)">
<path d="M555.559 6.7475L557.969 12.5229L564.484 14.66L557.969 16.7972L555.559 22.5726L553.148 16.7972L546.634 14.66L553.148 12.5229L555.559 6.7475Z" fill="#D9D9D9" fill-opacity="0.3"/>
</g>
<g filter="url(#filter11_f_50_305)">
<path d="M1014.3 6.7475L1015.75 10.2128L1019.66 11.495L1015.75 12.7773L1014.3 16.2426L1012.86 12.7773L1008.95 11.495L1012.86 10.2128L1014.3 6.7475Z" fill="#D9D9D9" fill-opacity="0.3"/>
</g>
<g filter="url(#filter12_f_50_305)">
<path d="M707.283 206.144L709.694 211.919L716.208 214.056L709.694 216.193L707.283 221.969L704.873 216.193L698.358 214.056L704.873 211.919L707.283 206.144Z" fill="#D9D9D9" fill-opacity="0.3"/>
</g>
<g filter="url(#filter13_f_50_305)">
<path d="M1078.56 141.261L1080.97 147.036L1087.49 149.174L1080.97 151.311L1078.56 157.086L1076.15 151.311L1069.64 149.174L1076.15 147.036L1078.56 141.261Z" fill="#D9D9D9" fill-opacity="0.3"/>
</g>
<g filter="url(#filter14_f_50_305)">
<path d="M1205.3 63.7179L1207.71 69.4933L1214.22 71.6304L1207.71 73.7676L1205.3 79.543L1202.89 73.7676L1196.37 71.6304L1202.89 69.4933L1205.3 63.7179Z" fill="#D9D9D9" fill-opacity="0.3"/>
</g>
<g filter="url(#filter15_f_50_305)">
<path d="M821.523 63.7179L823.934 69.4933L830.448 71.6304L823.934 73.7676L821.523 79.543L819.113 73.7676L812.598 71.6304L819.113 69.4933L821.523 63.7179Z" fill="#D9D9D9" fill-opacity="0.3"/>
</g>
<g filter="url(#filter16_f_50_305)">
<path d="M1242.78 182.406L1245.19 188.182L1251.71 190.319L1245.19 192.456L1242.78 198.231L1240.37 192.456L1233.86 190.319L1240.37 188.182L1242.78 182.406Z" fill="#D9D9D9" fill-opacity="0.3"/>
</g>
<g filter="url(#filter17_f_50_305)">
<path d="M1319.54 380.22L1321.95 385.995L1328.46 388.132L1321.95 390.27L1319.54 396.045L1317.13 390.27L1310.61 388.132L1317.13 385.995L1319.54 380.22Z" fill="#D9D9D9" fill-opacity="0.3"/>
</g>
<defs>
<filter id="filter0_f_50_305" x="198.344" y="69.6304" width="21.85" height="19.8251" filterUnits="userSpaceOnUse" color-interpolation-filters="sRGB">
<feFlood flood-opacity="0" result="BackgroundImageFix"/>
<feBlend mode="normal" in="SourceGraphic" in2="BackgroundImageFix" result="shape"/>
<feGaussianBlur stdDeviation="1" result="effect1_foregroundBlur_50_305"/>
</filter>
<filter id="filter1_f_50_305" x="350.069" y="180.406" width="21.85" height="19.8251" filterUnits="userSpaceOnUse" color-interpolation-filters="sRGB">
<feFlood flood-opacity="0" result="BackgroundImageFix"/>
<feBlend mode="normal" in="SourceGraphic" in2="BackgroundImageFix" result="shape"/>
<feGaussianBlur stdDeviation="1" result="effect1_foregroundBlur_50_305"/>
</filter>
<filter id="filter2_f_50_305" x="100.169" y="196.231" width="16.495" height="15.0775" filterUnits="userSpaceOnUse" color-interpolation-filters="sRGB">
<feFlood flood-opacity="0" result="BackgroundImageFix"/>
<feBlend mode="normal" in="SourceGraphic" in2="BackgroundImageFix" result="shape"/>
<feGaussianBlur stdDeviation="1" result="effect1_foregroundBlur_50_305"/>
</filter>
<filter id="filter3_f_50_305" x="9.13461" y="109.193" width="20.065" height="18.2426" filterUnits="userSpaceOnUse" color-interpolation-filters="sRGB">
<feFlood flood-opacity="0" result="BackgroundImageFix"/>
<feBlend mode="normal" in="SourceGraphic" in2="BackgroundImageFix" result="shape"/>
<feGaussianBlur stdDeviation="1" result="effect1_foregroundBlur_50_305"/>
</filter>
<filter id="filter4_f_50_305" x="99.1694" y="340.822" width="20.28" height="18.66" filterUnits="userSpaceOnUse" color-interpolation-filters="sRGB">
<feFlood flood-opacity="0" result="BackgroundImageFix"/>
<feBlend mode="normal" in="SourceGraphic" in2="BackgroundImageFix" result="shape"/>
<feGaussianBlur stdDeviation="1.5" result="effect1_foregroundBlur_50_305"/>
</filter>
<filter id="filter5_f_50_305" x="223.334" y="147.173" width="18.28" height="16.66" filterUnits="userSpaceOnUse" color-interpolation-filters="sRGB">
<feFlood flood-opacity="0" result="BackgroundImageFix"/>
<feBlend mode="normal" in="SourceGraphic" in2="BackgroundImageFix" result="shape"/>
<feGaussianBlur stdDeviation="1" result="effect1_foregroundBlur_50_305"/>
</filter>
<filter id="filter6_f_50_305" x="400.049" y="85.4556" width="9.35498" height="8.74756" filterUnits="userSpaceOnUse" color-interpolation-filters="sRGB">
<feFlood flood-opacity="0" result="BackgroundImageFix"/>
<feBlend mode="normal" in="SourceGraphic" in2="BackgroundImageFix" result="shape"/>
<feGaussianBlur stdDeviation="1" result="effect1_foregroundBlur_50_305"/>
</filter>
<filter id="filter7_f_50_305" x="310.799" y="18.9901" width="9.35498" height="8.74756" filterUnits="userSpaceOnUse" color-interpolation-filters="sRGB">
<feFlood flood-opacity="0" result="BackgroundImageFix"/>
<feBlend mode="normal" in="SourceGraphic" in2="BackgroundImageFix" result="shape"/>
<feGaussianBlur stdDeviation="1" result="effect1_foregroundBlur_50_305"/>
</filter>
<filter id="filter8_f_50_305" x="776.683" y="0" width="9.35498" height="8.74756" filterUnits="userSpaceOnUse" color-interpolation-filters="sRGB">
<feFlood flood-opacity="0" result="BackgroundImageFix"/>
<feBlend mode="normal" in="SourceGraphic" in2="BackgroundImageFix" result="shape"/>
<feGaussianBlur stdDeviation="1" result="effect1_foregroundBlur_50_305"/>
</filter>
<filter id="filter9_f_50_305" x="599.968" y="90.2031" width="9.35498" height="8.74756" filterUnits="userSpaceOnUse" color-interpolation-filters="sRGB">
<feFlood flood-opacity="0" result="BackgroundImageFix"/>
<feBlend mode="normal" in="SourceGraphic" in2="BackgroundImageFix" result="shape"/>
<feGaussianBlur stdDeviation="1" result="effect1_foregroundBlur_50_305"/>
</filter>
<filter id="filter10_f_50_305" x="544.634" y="4.7475" width="21.85" height="19.8251" filterUnits="userSpaceOnUse" color-interpolation-filters="sRGB">
<feFlood flood-opacity="0" result="BackgroundImageFix"/>
<feBlend mode="normal" in="SourceGraphic" in2="BackgroundImageFix" result="shape"/>
<feGaussianBlur stdDeviation="1" result="effect1_foregroundBlur_50_305"/>
</filter>
<filter id="filter11_f_50_305" x="1006.95" y="4.7475" width="14.71" height="13.4951" filterUnits="userSpaceOnUse" color-interpolation-filters="sRGB">
<feFlood flood-opacity="0" result="BackgroundImageFix"/>
<feBlend mode="normal" in="SourceGraphic" in2="BackgroundImageFix" result="shape"/>
<feGaussianBlur stdDeviation="1" result="effect1_foregroundBlur_50_305"/>
</filter>
<filter id="filter12_f_50_305" x="696.358" y="204.144" width="21.85" height="19.8251" filterUnits="userSpaceOnUse" color-interpolation-filters="sRGB">
<feFlood flood-opacity="0" result="BackgroundImageFix"/>
<feBlend mode="normal" in="SourceGraphic" in2="BackgroundImageFix" result="shape"/>
<feGaussianBlur stdDeviation="1" result="effect1_foregroundBlur_50_305"/>
</filter>
<filter id="filter13_f_50_305" x="1067.64" y="139.261" width="21.85" height="19.8251" filterUnits="userSpaceOnUse" color-interpolation-filters="sRGB">
<feFlood flood-opacity="0" result="BackgroundImageFix"/>
<feBlend mode="normal" in="SourceGraphic" in2="BackgroundImageFix" result="shape"/>
<feGaussianBlur stdDeviation="1" result="effect1_foregroundBlur_50_305"/>
</filter>
<filter id="filter14_f_50_305" x="1194.37" y="61.7179" width="21.85" height="19.8251" filterUnits="userSpaceOnUse" color-interpolation-filters="sRGB">
<feFlood flood-opacity="0" result="BackgroundImageFix"/>
<feBlend mode="normal" in="SourceGraphic" in2="BackgroundImageFix" result="shape"/>
<feGaussianBlur stdDeviation="1" result="effect1_foregroundBlur_50_305"/>
</filter>
<filter id="filter15_f_50_305" x="810.598" y="61.7179" width="21.85" height="19.8251" filterUnits="userSpaceOnUse" color-interpolation-filters="sRGB">
<feFlood flood-opacity="0" result="BackgroundImageFix"/>
<feBlend mode="normal" in="SourceGraphic" in2="BackgroundImageFix" result="shape"/>
<feGaussianBlur stdDeviation="1" result="effect1_foregroundBlur_50_305"/>
</filter>
<filter id="filter16_f_50_305" x="1231.86" y="180.406" width="21.85" height="19.8251" filterUnits="userSpaceOnUse" color-interpolation-filters="sRGB">
<feFlood flood-opacity="0" result="BackgroundImageFix"/>
<feBlend mode="normal" in="SourceGraphic" in2="BackgroundImageFix" result="shape"/>
<feGaussianBlur stdDeviation="1" result="effect1_foregroundBlur_50_305"/>
</filter>
<filter id="filter17_f_50_305" x="1308.61" y="378.22" width="21.85" height="19.8251" filterUnits="userSpaceOnUse" color-interpolation-filters="sRGB">
<feFlood flood-opacity="0" result="BackgroundImageFix"/>
<feBlend mode="normal" in="SourceGraphic" in2="BackgroundImageFix" result="shape"/>
<feGaussianBlur stdDeviation="1" result="effect1_foregroundBlur_50_305"/>
</filter>
</defs>
</svg>
